<svg version="1.2" xmlns="http://www.w3.org/2000/svg" viewBox="0 0 1718 513" width="1718" height="513">
	<style>
		.s0 { fill: #000000 } 
	</style>
	<g id="Layer 1">
		<path id="Shape 1 copy 5" fill-rule="evenodd" class="s0" d="m375.23 381.28c0 0-9.35-21.63-16.68-23.69-4.77-3.25-52.44-2.29-52.44-2.29l6.95 26.55h62.43"/>
		<path id="Shape 12 copy 4" fill-rule="evenodd" class="s0" d="m312.65 387.4h63.59l0.02 23.12c0 0-22.23-0.83-33.53 20.92-7.89 16.16-1.7 30.12-1.7 30.12 0 0 2.86 9.61 12.96 17.39 11.41 8.65 23.81 7.53 23.81 7.53l0.02 25.57-65.45 0.24"/>
		<path id="Shape 5 copy 4" fill-rule="evenodd" class="s0" d="m409.7 219.28c0 0 273.46-8.83 302.95-95.37 0.63 91.1 0.35 90.42 0.35 90.42 0 0 1.9 117.21-303.62 130.59"/>
		<path id="Shape 12 copy 5" fill-rule="evenodd" class="s0" d="m399.55 220.4h-63.6l-0.02 23.12c0 0 22.23-0.83 33.53 20.92 7.89 16.16 1.7 30.12 1.7 30.12 0 0-2.86 9.61-12.96 17.39-11.41 8.65-23.81 7.53-23.81 7.53l-0.02 25.57 65.45 0.24"/>
		<path id="DO CLIQUE AO PALCO copy 2" class="s0" aria-label="DO CLIQUE AO PALCO"  d="m822.8 408.2h-13.7v62.8h13.7c10.2 0 15.7-5.6 15.7-15.9v-31c0-10.3-5.5-15.9-15.7-15.9zm-0.4 8.8c4.6 0 6.6 2.4 6.6 7.7v29.8c0 5.3-2 7.7-6.6 7.7h-3.8v-45.2zm39.1-9.7c-9.5 0-15.3 6-15.3 15.9v32.8c0 9.9 5.8 15.9 15.3 15.9 9.5 0 15.3-6 15.3-15.9v-32.8c0-9.9-5.8-15.9-15.3-15.9zm0 8.8c3.8 0 5.8 2.5 5.8 7.2v32.6c0 4.7-2 7.2-5.8 7.2-3.8 0-5.8-2.5-5.8-7.2v-32.6c0-4.7 2-7.2 5.8-7.2zm55.3-8.8c-9.3 0-14.6 5.6-14.6 15.1v34.4c0 9.5 5.3 15.1 14.6 15.1 9.3 0 14.8-5.6 14.8-15.1v-7.5l-9.2-0.5v7c0 5.1-1.8 7.3-5.3 7.3-3.5 0-5.4-2.2-5.4-6.4v-34.2c0-4.2 1.9-6.4 5.4-6.4 3.5 0 5.3 2.2 5.3 7.3v5.1l9.2-0.5v-5.6c0-9.5-5.5-15.1-14.8-15.1zm32.9 0.9h-9.6v62.8h25.4v-9h-15.8zm31 0h-9.6v62.8h9.6zm24.8-0.9c-9.5 0-15.3 6-15.3 15.9v32.9c0 9.8 5.8 15.8 15.3 15.8 2.2 0 4.4-0.3 6.2-1 2.2 3.7 5.8 5.3 10.5 5.3l0.9-8.8c-2.1 0-3.8-0.4-4.9-1.6 1.7-2.6 2.6-5.9 2.6-9.7v-32.9c0-9.9-5.8-15.9-15.3-15.9zm0 8.8c3.8 0 5.8 2.5 5.8 7.2v32.7c0 4.6-2 7.1-5.8 7.1-3.8 0-5.8-2.5-5.8-7.1v-32.7c0-4.7 2-7.2 5.8-7.2zm53.5-7.9h-9.5v48.5c0 4.6-2 6.3-5.4 6.3-3.3 0-5.3-1.7-5.3-6.3v-48.5h-9.2v48.8c0 9.8 5.7 14.9 14.6 14.9 9.2 0 14.8-5.1 14.8-14.9zm36.9 0h-26.8v62.8h26.8v-8.8h-17.2v-18.7h13.9v-8.8h-13.9v-17.8h17.2zm43.8 0h-12.1l-10.9 62.9h9.5l2.1-14.3h10.5l2.1 14.3h9.7zm-6 13.4l3.8 26.5h-8l3.9-26.5zm36.8-14.3c-9.5 0-15.4 6-15.4 15.8v32.9c0 9.8 5.9 15.9 15.4 15.9 9.5 0 15.3-6.1 15.3-15.9v-32.9c0-9.8-5.8-15.8-15.3-15.8zm0 8.7c3.8 0 5.8 2.6 5.8 7.2v32.7c0 4.6-2 7.2-5.8 7.2-3.8 0-5.8-2.6-5.8-7.2v-32.7c0-4.6 2-7.2 5.8-7.2zm55.4-7.8h-13.8v62.8h9.5v-26.1h4.3c10.2 0 15.8-5.5 15.8-15.8v-5.1c0-10.3-5.6-15.8-15.8-15.8zm-0.4 8.7c4.6 0 6.6 2.5 6.6 7.8v3.7c0 5.3-2 7.7-6.6 7.7h-3.9v-19.2zm40.2-8.7h-12.1l-10.8 62.8h9.5l2-14.3h10.5l2.1 14.3h9.7zm-6 13.4l3.8 26.5h-7.9l3.8-26.5zm33-13.4h-9.5v62.8h25.4v-9h-15.9zm36.1-0.9c-9.2 0-14.6 5.6-14.6 15.1v34.4c0 9.5 5.4 15.1 14.6 15.1 9.3 0 14.8-5.6 14.8-15.1v-7.5l-9.1-0.5v7c0 5.1-1.9 7.3-5.4 7.3-3.5 0-5.4-2.2-5.4-6.4v-34.2c0-4.2 1.9-6.4 5.4-6.4 3.5 0 5.4 2.2 5.4 7.3v5.1l9.1-0.5v-5.6c0-9.5-5.5-15.1-14.8-15.1zm36.7 0c-9.5 0-15.3 6-15.3 15.9v32.8c0 9.9 5.8 15.9 15.3 15.9 9.5 0 15.4-6 15.4-15.9v-32.8c0-9.9-5.9-15.9-15.4-15.9zm0 8.8c3.8 0 5.8 2.5 5.8 7.2v32.6c0 4.7-2 7.2-5.8 7.2-3.8 0-5.8-2.5-5.8-7.2v-32.6c0-4.7 2-7.2 5.8-7.2z"/>
		<path id="Shape 2 copy" fill-rule="evenodd" class="s0" d="m296.15 354.98l5.06 26.47c0 0-284.44-6.7-301.84-102.39 1.87-100.67 315.36-117.75 358.24-110.3-10.44 11.48-30.6 10.9-30.6 10.9 0 0-270.78 5.57-284.45 92.56 7.83 64.8 205.99 84.86 253.59 82.76z"/>
		<path id="Shape 5 copy" fill-rule="evenodd" class="s0" d="m302.15 387.28c0 0-273.45-8.83-302.94-95.37-0.63 91.1-0.35 90.42-0.35 90.42 0 0-1.9 117.21 303.61 130.59"/>
		<path id="Shape 1 copy 2" fill-rule="evenodd" class="s0" d="m375.23 381.28c0 0-9.35-21.63-16.68-23.69-4.77-3.25-52.44-2.29-52.44-2.29l6.95 26.55h62.43"/>
		<path id="Shape 12 copy 2" fill-rule="evenodd" class="s0" d="m312.65 387.4h63.59l0.02 23.12c0 0-22.23-0.83-33.53 20.92-7.89 16.16-1.7 30.12-1.7 30.12 0 0 2.86 9.61 12.96 17.39 11.41 8.65 23.81 7.53 23.81 7.53l0.02 25.57-65.45 0.24"/>
		<path id="Shape 5" fill-rule="evenodd" class="s0" d="m409.7 219.28c0 0 273.46-8.83 302.95-95.37 0.63 91.1 0.35 90.42 0.35 90.42 0 0 1.9 117.21-303.62 130.59"/>
		<path id="Shape 12" fill-rule="evenodd" class="s0" d="m399.55 220.4h-63.6l-0.02 23.12c0 0 22.23-0.83 33.53 20.92 7.89 16.16 1.7 30.12 1.7 30.12 0 0-2.86 9.61-12.96 17.39-11.41 8.65-23.81 7.53-23.81 7.53l-0.02 25.57 65.45 0.24"/>
		<path id="Shape 2" fill-rule="evenodd" class="s0" d="m415.71 187.98l-5.06 26.47c0 0 284.43-6.7 301.83-102.39-1.86-100.67-315.35-117.75-358.23-110.3 10.44 11.48 30.6 10.9 30.6 10.9 0 0 270.78 5.57 284.45 92.56-7.84 64.8-206 84.86-253.59 82.76z"/>
		<path id="Shape 1 copy" fill-rule="evenodd" class="s0" d="m337.37 213.28c0 0 9.35-21.63 16.69-23.69 4.76-3.25 50.63-2.29 50.63-2.29l-5.15 26.55h-62.43"/>
		<path id="Shape 2 copy 2" fill-rule="evenodd" class="s0" d="m296.15 354.98l5.06 26.47c0 0-284.44-6.7-301.84-102.39 1.87-100.67 315.36-117.75 358.24-110.3-10.44 11.48-30.6 10.9-30.6 10.9 0 0-270.78 5.57-284.45 92.56 7.83 64.8 205.99 84.86 253.59 82.76z"/>
		<path id="Shape 5 copy 2" fill-rule="evenodd" class="s0" d="m302.15 387.28c0 0-273.45-8.83-302.94-95.37-0.63 91.1-0.35 90.42-0.35 90.42 0 0-1.9 117.21 303.61 130.59"/>
		<path id="Shape 1 copy 3" fill-rule="evenodd" class="s0" d="m375.23 381.28c0 0-9.35-21.63-16.68-23.69-4.77-3.25-52.44-2.29-52.44-2.29l6.95 26.55h62.43"/>
		<path id="Shape 12 copy 3" fill-rule="evenodd" class="s0" d="m312.65 387.4h63.59l0.02 23.12c0 0-22.23-0.83-33.53 20.92-7.89 16.16-1.7 30.12-1.7 30.12 0 0 2.86 9.61 12.96 17.39 11.41 8.65 23.81 7.53 23.81 7.53l0.02 25.57-65.45 0.24"/>
		<path id="Shape 5 copy 3" fill-rule="evenodd" class="s0" d="m409.7 219.28c0 0 273.46-8.83 302.95-95.37 0.63 91.1 0.35 90.42 0.35 90.42 0 0 1.9 117.21-303.62 130.59"/>
		<path id="Shape 12 copy" fill-rule="evenodd" class="s0" d="m399.55 220.4h-63.6l-0.02 23.12c0 0 22.23-0.83 33.53 20.92 7.89 16.16 1.7 30.12 1.7 30.12 0 0-2.86 9.61-12.96 17.39-11.41 8.65-23.81 7.53-23.81 7.53l-0.02 25.57 65.45 0.24"/>
		<path id="Shape 2 copy 3" fill-rule="evenodd" class="s0" d="m415.71 187.98l-5.06 26.47c0 0 284.43-6.7 301.83-102.39-1.86-100.67-315.35-117.75-358.23-110.3 10.44 11.48 30.6 10.9 30.6 10.9 0 0 270.78 5.57 284.45 92.56-7.84 64.8-206 84.86-253.59 82.76z"/>
		<path id="Shape 1 copy 4" fill-rule="evenodd" class="s0" d="m337.37 213.28c0 0 9.35-21.63 16.69-23.69 4.76-3.25 50.63-2.29 50.63-2.29l-5.15 26.55h-62.43"/>
		<path id="TICKET HALL copy" class="s0" aria-label="TICKET
HALL"  d="m909.8 213h-61.4v-102.6h-45.2v-50.9h151.5v50.9h-44.9zm117.4 0h-61.4v-153.5h61.4zm103.3 3.5q-26.3 0-46.7-9.4-20.4-9.5-32-26.1-11.4-16.7-11.4-38.2v-13.1q0-21.8 11.4-38.2 11.6-16.7 32-26.1 20.4-9.4 46.7-9.4 23.3 0 42.1 7.4 18.9 7.5 30.9 20.9 12.3 13.1 14.7 30.9l-62.9 12.7q-0.9-9-7.9-15.1-6.8-6.4-16.9-6.4-10.7 0-18.2 6.8-7.4 6.8-7.4 16.5v13.1q0 9.7 7.4 16.5 7.5 6.8 18.2 6.8 10.1 0 16.9-6.2 7-6.3 7.9-15.3l62.9 12.7q-2.4 17.5-14.7 30.9-12 13.4-30.9 20.8-18.8 7.5-42.1 7.5zm159.7-3.5h-61.4v-153.5h61.4v45.8l45.1-45.8h68.9l-59.4 57.2 63.8 96.3h-74.6l-31.6-55.7-12.2 11.8zm265.9 0h-144.3v-153.5h144.3v44.3h-82.9v13.6h59.2v37.7h-59.2v13.6h82.9zm114.7 0h-61.4v-102.6h-45.2v-50.9h151.5v50.9h-44.9zm-799.6 176h-61.4v-153.5h61.4v50.2h43.8v-50.2h61.4v153.5h-61.4v-54.6h-43.8zm175.5 0h-62.7l57-153.5h79l57 153.5h-62.7l-7.3-23.9h-52.6zm32.7-109.9l-8.3 33.2-4.9 15.1h29.6l-4.6-15.1-7.9-33.2zm233.3 109.9h-128.9v-153.5h61.4v102.6h67.5zm140 0h-128.9v-153.5h61.4v102.7h67.5z"/>
		<path id="DO CLIQUE AO PALCO copy" class="s0" aria-label="DO CLIQUE AO PALCO"  d="m822.8 408.2h-13.7v62.8h13.7c10.2 0 15.7-5.6 15.7-15.9v-31c0-10.3-5.5-15.9-15.7-15.9zm-0.4 8.8c4.6 0 6.6 2.4 6.6 7.7v29.8c0 5.3-2 7.7-6.6 7.7h-3.8v-45.2zm39.1-9.7c-9.5 0-15.3 6-15.3 15.9v32.8c0 9.9 5.8 15.9 15.3 15.9 9.5 0 15.3-6 15.3-15.9v-32.8c0-9.9-5.8-15.9-15.3-15.9zm0 8.8c3.8 0 5.8 2.5 5.8 7.2v32.6c0 4.7-2 7.2-5.8 7.2-3.8 0-5.8-2.5-5.8-7.2v-32.6c0-4.7 2-7.2 5.8-7.2zm55.3-8.8c-9.3 0-14.6 5.6-14.6 15.1v34.4c0 9.5 5.3 15.1 14.6 15.1 9.3 0 14.8-5.6 14.8-15.1v-7.5l-9.2-0.5v7c0 5.1-1.8 7.3-5.3 7.3-3.5 0-5.4-2.2-5.4-6.4v-34.2c0-4.2 1.9-6.4 5.4-6.4 3.5 0 5.3 2.2 5.3 7.3v5.1l9.2-0.5v-5.6c0-9.5-5.5-15.1-14.8-15.1zm32.9 0.9h-9.6v62.8h25.4v-9h-15.8zm31 0h-9.6v62.8h9.6zm24.8-0.9c-9.5 0-15.3 6-15.3 15.9v32.9c0 9.8 5.8 15.8 15.3 15.8 2.2 0 4.4-0.3 6.2-1 2.2 3.7 5.8 5.3 10.5 5.3l0.9-8.8c-2.1 0-3.8-0.4-4.9-1.6 1.7-2.6 2.6-5.9 2.6-9.7v-32.9c0-9.9-5.8-15.9-15.3-15.9zm0 8.8c3.8 0 5.8 2.5 5.8 7.2v32.7c0 4.6-2 7.1-5.8 7.1-3.8 0-5.8-2.5-5.8-7.1v-32.7c0-4.7 2-7.2 5.8-7.2zm53.5-7.9h-9.5v48.5c0 4.6-2 6.3-5.4 6.3-3.3 0-5.3-1.7-5.3-6.3v-48.5h-9.2v48.8c0 9.8 5.7 14.9 14.6 14.9 9.2 0 14.8-5.1 14.8-14.9zm36.9 0h-26.8v62.8h26.8v-8.8h-17.2v-18.7h13.9v-8.8h-13.9v-17.8h17.2zm43.8 0h-12.1l-10.9 62.9h9.5l2.1-14.3h10.5l2.1 14.3h9.7zm-6 13.4l3.8 26.5h-8l3.9-26.5zm36.8-14.3c-9.5 0-15.4 6-15.4 15.8v32.9c0 9.8 5.9 15.9 15.4 15.9 9.5 0 15.3-6.1 15.3-15.9v-32.9c0-9.8-5.8-15.8-15.3-15.8zm0 8.7c3.8 0 5.8 2.6 5.8 7.2v32.7c0 4.6-2 7.2-5.8 7.2-3.8 0-5.8-2.6-5.8-7.2v-32.7c0-4.6 2-7.2 5.8-7.2zm55.4-7.8h-13.8v62.8h9.5v-26.1h4.3c10.2 0 15.8-5.5 15.8-15.8v-5.1c0-10.3-5.6-15.8-15.8-15.8zm-0.4 8.7c4.6 0 6.6 2.5 6.6 7.8v3.7c0 5.3-2 7.7-6.6 7.7h-3.9v-19.2zm40.2-8.7h-12.1l-10.8 62.8h9.5l2-14.3h10.5l2.1 14.3h9.7zm-6 13.4l3.8 26.5h-7.9l3.8-26.5zm33-13.4h-9.5v62.8h25.4v-9h-15.9zm36.1-0.9c-9.2 0-14.6 5.6-14.6 15.1v34.4c0 9.5 5.4 15.1 14.6 15.1 9.3 0 14.8-5.6 14.8-15.1v-7.5l-9.1-0.5v7c0 5.1-1.9 7.3-5.4 7.3-3.5 0-5.4-2.2-5.4-6.4v-34.2c0-4.2 1.9-6.4 5.4-6.4 3.5 0 5.4 2.2 5.4 7.3v5.1l9.1-0.5v-5.6c0-9.5-5.5-15.1-14.8-15.1zm36.7 0c-9.5 0-15.3 6-15.3 15.9v32.8c0 9.9 5.8 15.9 15.3 15.9 9.5 0 15.4-6 15.4-15.9v-32.8c0-9.9-5.9-15.9-15.4-15.9zm0 8.8c3.8 0 5.8 2.5 5.8 7.2v32.6c0 4.7-2 7.2-5.8 7.2-3.8 0-5.8-2.5-5.8-7.2v-32.6c0-4.7 2-7.2 5.8-7.2z"/>
		<path id="Shape 2 copy" fill-rule="evenodd" class="s0" d="m296.15 354.98l5.06 26.47c0 0-284.44-6.7-301.84-102.39 1.87-100.67 315.36-117.75 358.24-110.3-10.44 11.48-30.6 10.9-30.6 10.9 0 0-270.78 5.57-284.45 92.56 7.83 64.8 205.99 84.86 253.59 82.76z"/>
		<path id="Shape 5 copy" fill-rule="evenodd" class="s0" d="m302.15 387.28c0 0-273.45-8.83-302.94-95.37-0.63 91.1-0.35 90.42-0.35 90.42 0 0-1.9 117.21 303.61 130.59"/>
		<path id="Shape 1 copy 2" fill-rule="evenodd" class="s0" d="m375.23 381.28c0 0-9.35-21.63-16.68-23.69-4.77-3.25-52.44-2.29-52.44-2.29l6.95 26.55h62.43"/>
		<path id="Shape 12 copy 2" fill-rule="evenodd" class="s0" d="m312.65 387.4h63.59l0.02 23.12c0 0-22.23-0.83-33.53 20.92-7.89 16.16-1.7 30.12-1.7 30.12 0 0 2.86 9.61 12.96 17.39 11.41 8.65 23.81 7.53 23.81 7.53l0.02 25.57-65.45 0.24"/>
		<path id="Shape 5" fill-rule="evenodd" class="s0" d="m409.7 219.28c0 0 273.46-8.83 302.95-95.37 0.63 91.1 0.35 90.42 0.35 90.42 0 0 1.9 117.21-303.62 130.59"/>
		<path id="Shape 12" fill-rule="evenodd" class="s0" d="m399.55 220.4h-63.6l-0.02 23.12c0 0 22.23-0.83 33.53 20.92 7.89 16.16 1.7 30.12 1.7 30.12 0 0-2.86 9.61-12.96 17.39-11.41 8.65-23.81 7.53-23.81 7.53l-0.02 25.57 65.45 0.24"/>
		<path id="Shape 2" fill-rule="evenodd" class="s0" d="m415.71 187.98l-5.06 26.47c0 0 284.43-6.7 301.83-102.39-1.86-100.67-315.35-117.75-358.23-110.3 10.44 11.48 30.6 10.9 30.6 10.9 0 0 270.78 5.57 284.45 92.56-7.84 64.8-206 84.86-253.59 82.76z"/>
		<path id="Shape 1 copy" fill-rule="evenodd" class="s0" d="m337.37 213.28c0 0 9.35-21.63 16.69-23.69 4.76-3.25 50.63-2.29 50.63-2.29l-5.15 26.55h-62.43"/>
		<path id="TICKET HALL" class="s0" aria-label="TICKET
HALL"  d="m909.8 213h-61.4v-102.6h-45.2v-50.9h151.5v50.9h-44.9zm117.4 0h-61.4v-153.5h61.4zm103.3 3.5q-26.3 0-46.7-9.4-20.4-9.5-32-26.1-11.4-16.7-11.4-38.2v-13.1q0-21.8 11.4-38.2 11.6-16.7 32-26.1 20.4-9.4 46.7-9.4 23.3 0 42.1 7.4 18.9 7.5 30.9 20.9 12.3 13.1 14.7 30.9l-62.9 12.7q-0.9-9-7.9-15.1-6.8-6.4-16.9-6.4-10.7 0-18.2 6.8-7.4 6.8-7.4 16.5v13.1q0 9.7 7.4 16.5 7.5 6.8 18.2 6.8 10.1 0 16.9-6.2 7-6.3 7.9-15.3l62.9 12.7q-2.4 17.5-14.7 30.9-12 13.4-30.9 20.8-18.8 7.5-42.1 7.5zm159.7-3.5h-61.4v-153.5h61.4v45.8l45.1-45.8h68.9l-59.4 57.2 63.8 96.3h-74.6l-31.6-55.7-12.2 11.8zm265.9 0h-144.3v-153.5h144.3v44.3h-82.9v13.6h59.2v37.7h-59.2v13.6h82.9zm114.7 0h-61.4v-102.6h-45.2v-50.9h151.5v50.9h-44.9zm-799.6 176h-61.4v-153.5h61.4v50.2h43.8v-50.2h61.4v153.5h-61.4v-54.6h-43.8zm175.5 0h-62.7l57-153.5h79l57 153.5h-62.7l-7.3-23.9h-52.6zm32.7-109.9l-8.3 33.2-4.9 15.1h29.6l-4.6-15.1-7.9-33.2zm233.3 109.9h-128.9v-153.5h61.4v102.6h67.5zm140 0h-128.9v-153.5h61.4v102.7h67.5z"/>
		<path id="DO CLIQUE AO PALCO" class="s0" aria-label="DO CLIQUE AO PALCO"  d="m822.8 408.2h-13.7v62.8h13.7c10.2 0 15.7-5.6 15.7-15.9v-31c0-10.3-5.5-15.9-15.7-15.9zm-0.4 8.8c4.6 0 6.6 2.4 6.6 7.7v29.8c0 5.3-2 7.7-6.6 7.7h-3.8v-45.2zm39.1-9.7c-9.5 0-15.3 6-15.3 15.9v32.8c0 9.9 5.8 15.9 15.3 15.9 9.5 0 15.3-6 15.3-15.9v-32.8c0-9.9-5.8-15.9-15.3-15.9zm0 8.8c3.8 0 5.8 2.5 5.8 7.2v32.6c0 4.7-2 7.2-5.8 7.2-3.8 0-5.8-2.5-5.8-7.2v-32.6c0-4.7 2-7.2 5.8-7.2zm55.3-8.8c-9.3 0-14.6 5.6-14.6 15.1v34.4c0 9.5 5.3 15.1 14.6 15.1 9.3 0 14.8-5.6 14.8-15.1v-7.5l-9.2-0.5v7c0 5.1-1.8 7.3-5.3 7.3-3.5 0-5.4-2.2-5.4-6.4v-34.2c0-4.2 1.9-6.4 5.4-6.4 3.5 0 5.3 2.2 5.3 7.3v5.1l9.2-0.5v-5.6c0-9.5-5.5-15.1-14.8-15.1zm32.9 0.9h-9.6v62.8h25.4v-9h-15.8zm31 0h-9.6v62.8h9.6zm24.8-0.9c-9.5 0-15.3 6-15.3 15.9v32.9c0 9.8 5.8 15.8 15.3 15.8 2.2 0 4.4-0.3 6.2-1 2.2 3.7 5.8 5.3 10.5 5.3l0.9-8.8c-2.1 0-3.8-0.4-4.9-1.6 1.7-2.6 2.6-5.9 2.6-9.7v-32.9c0-9.9-5.8-15.9-15.3-15.9zm0 8.8c3.8 0 5.8 2.5 5.8 7.2v32.7c0 4.6-2 7.1-5.8 7.1-3.8 0-5.8-2.5-5.8-7.1v-32.7c0-4.7 2-7.2 5.8-7.2zm53.5-7.9h-9.5v48.5c0 4.6-2 6.3-5.4 6.3-3.3 0-5.3-1.7-5.3-6.3v-48.5h-9.2v48.8c0 9.8 5.7 14.9 14.6 14.9 9.2 0 14.8-5.1 14.8-14.9zm36.9 0h-26.8v62.8h26.8v-8.8h-17.2v-18.7h13.9v-8.8h-13.9v-17.8h17.2zm43.8 0h-12.1l-10.9 62.9h9.5l2.1-14.3h10.5l2.1 14.3h9.7zm-6 13.4l3.8 26.5h-8l3.9-26.5zm36.8-14.3c-9.5 0-15.4 6-15.4 15.8v32.9c0 9.8 5.9 15.9 15.4 15.9 9.5 0 15.3-6.1 15.3-15.9v-32.9c0-9.8-5.8-15.8-15.3-15.8zm0 8.7c3.8 0 5.8 2.6 5.8 7.2v32.7c0 4.6-2 7.2-5.8 7.2-3.8 0-5.8-2.6-5.8-7.2v-32.7c0-4.6 2-7.2 5.8-7.2zm55.4-7.8h-13.8v62.8h9.5v-26.1h4.3c10.2 0 15.8-5.5 15.8-15.8v-5.1c0-10.3-5.6-15.8-15.8-15.8zm-0.4 8.7c4.6 0 6.6 2.5 6.6 7.8v3.7c0 5.3-2 7.7-6.6 7.7h-3.9v-19.2zm40.2-8.7h-12.1l-10.8 62.8h9.5l2-14.3h10.5l2.1 14.3h9.7zm-6 13.4l3.8 26.5h-7.9l3.8-26.5zm33-13.4h-9.5v62.8h25.4v-9h-15.9zm36.1-0.9c-9.2 0-14.6 5.6-14.6 15.1v34.4c0 9.5 5.4 15.1 14.6 15.1 9.3 0 14.8-5.6 14.8-15.1v-7.5l-9.1-0.5v7c0 5.1-1.9 7.3-5.4 7.3-3.5 0-5.4-2.2-5.4-6.4v-34.2c0-4.2 1.9-6.4 5.4-6.4 3.5 0 5.4 2.2 5.4 7.3v5.1l9.1-0.5v-5.6c0-9.5-5.5-15.1-14.8-15.1zm36.7 0c-9.5 0-15.3 6-15.3 15.9v32.8c0 9.9 5.8 15.9 15.3 15.9 9.5 0 15.4-6 15.4-15.9v-32.8c0-9.9-5.9-15.9-15.4-15.9zm0 8.8c3.8 0 5.8 2.5 5.8 7.2v32.6c0 4.7-2 7.2-5.8 7.2-3.8 0-5.8-2.5-5.8-7.2v-32.6c0-4.7 2-7.2 5.8-7.2z"/>
	</g>
</svg>