<svg version="1.2" xmlns="http://www.w3.org/2000/svg" viewBox="0 0 1718 513" width="1718" height="513">
	<style>
		.s0 { fill: #191919 } 
		.s1 { fill: #262626 } 
	</style>
	<g id="Layer 1">
		<path id="Shape 1 copy 5" fill-rule="evenodd" class="s0" d="m305.69 351.15c0 0-7.59-17.56-13.55-19.23-3.87-2.64-42.58-1.86-42.58-1.86l5.64 21.56h50.7"/>
		<path id="Shape 12 copy 4" fill-rule="evenodd" class="s0" d="m254.87 356.12h51.64l0.02 18.78c0 0-18.05-0.68-27.24 16.99-6.4 13.12-1.38 24.46-1.38 24.46 0 0 2.33 7.81 10.53 14.12 9.26 7.02 19.34 6.11 19.34 6.11l0.01 20.77-53.15 0.19"/>
		<path id="Shape 5 copy 4" fill-rule="evenodd" class="s0" d="m333.68 219.6c0 0 222.07-7.17 246.02-77.45 0.51 73.98 0.28 73.43 0.28 73.43 0 0 1.55 95.19-246.55 106.05"/>
		<path id="Shape 12 copy 5" fill-rule="evenodd" class="s0" d="m325.44 220.51h-51.65l-0.01 18.78c0 0 18.05-0.68 27.23 16.99 6.4 13.11 1.38 24.45 1.38 24.45 0 0-2.33 7.81-10.53 14.12-9.26 7.03-19.34 6.12-19.34 6.12l-0.01 20.76 53.15 0.2"/>
		<path id="Shape 2" fill-rule="evenodd" class="s0" d="m338.56 194.19l-4.11 21.49c0 0 230.98-5.44 245.11-83.15-1.51-81.75-256.09-95.62-290.91-89.57 8.48 9.32 24.85 8.85 24.85 8.85 0 0 219.89 4.53 230.99 75.17-6.36 52.62-167.28 68.91-205.93 67.21z"/>
		<path id="Shape 1 copy" fill-rule="evenodd" class="s0" d="m274.95 214.73c0 0 7.59-17.57 13.54-19.24 3.87-2.64 41.13-1.86 41.13-1.86l-4.19 21.56h-50.7"/>
		<path id="Shape 2 copy 2" fill-rule="evenodd" class="s0" d="m241.47 329.8l4.11 21.5c0 0-230.98-5.44-245.11-83.15 1.51-81.75 256.09-95.63 290.91-89.57-8.48 9.32-24.85 8.85-24.85 8.85 0 0-219.89 4.52-230.99 75.17 6.36 52.61 167.28 68.9 205.93 67.2z"/>
		<path id="Shape 5 copy 2" fill-rule="evenodd" class="s0" d="m246.35 356.03c0 0-222.07-7.17-246.01-77.45-0.52 73.98-0.29 73.43-0.29 73.43 0 0-1.54 95.18 246.56 106.05"/>
		<path id="Shape 1 copy 3" fill-rule="evenodd" class="s0" d="m305.69 351.15c0 0-7.59-17.56-13.55-19.23-3.87-2.64-42.58-1.86-42.58-1.86l5.64 21.56h50.7"/>
		<path id="Shape 12 copy 3" fill-rule="evenodd" class="s0" d="m254.87 356.12h51.64l0.02 18.78c0 0-18.05-0.68-27.24 16.99-6.4 13.12-1.38 24.46-1.38 24.46 0 0 2.33 7.81 10.53 14.12 9.26 7.02 19.34 6.11 19.34 6.11l0.01 20.77-53.15 0.19"/>
		<path id="TICKET HALL" class="s1" aria-label="TICKET
HALL"  d="m782.9 246h-71.1v-118.8h-52.3v-58.9h175.5v58.9h-52.1zm135.3 0h-71v-177.7h71zm120.2 4.1q-30.5 0-54.1-11-23.6-10.9-37-30.2-13.2-19.3-13.2-44.1v-15.3q0-25.1 13.2-44.1 13.4-19.3 37-30.3 23.6-10.9 54.1-10.9 26.9 0 48.8 8.7 21.8 8.6 35.7 24.1 14.3 15.2 17.1 35.8l-72.9 14.7q-1-10.4-9.1-17.5-7.9-7.4-19.6-7.4-12.4 0-21.1 7.9-8.6 7.9-8.6 19v15.3q0 11.1 8.6 19 8.7 7.9 21.1 7.9 11.7 0 19.6-7.1 8.1-7.4 9.1-17.8l72.9 14.7q-2.8 20.3-17.1 35.8-13.9 15.5-35.7 24.1-21.9 8.7-48.8 8.7zm183.8-4.1h-71v-177.7h71v53.1l52.3-53.1h79.7l-68.8 66.3 73.9 111.4h-86.3l-36.5-64.5-14.3 13.7zm308 0h-167v-177.7h167v51.3h-96v15.7h68.6v43.7h-68.6v15.7h96zm133.7 0h-71.1v-118.8h-52.3v-58.9h175.5v58.9h-52.1zm-925.7 203h-71v-177.7h71v58.2h50.8v-58.2h71.1v177.7h-71.1v-63.2h-50.8zm202.1 0h-72.6l66-177.7h91.4l66 177.7h-72.6l-8.4-27.6h-60.9zm37.8-127.2l-9.6 38.3-5.6 17.5h34.3l-5.4-17.5-9.1-38.3zm270.3 127.2h-149.3v-177.7h71.1v118.8h78.2zm162 0h-149.3v-177.7h71.1v118.8h78.2z"/>
	</g>
</svg>